@startuml
hide empty members

package misc {
    abstract Recoverable
    class Escrow
}

package hub {
    class "Hub/HubHelpers" as Hub
}

package spoke {
    class Spoke
    class BalanceSheet
}

interface IAdapter

class TokenRecoverer
class Root
class MessageDispatcher
class MessageProcessor
class Gateway
class AxelarAdapter
class WormholeAdapter
class Guardian
class GasService
class PoolEscrow

AxelarAdapter -up-|> IAdapter
AxelarAdapter -up--> Gateway

WormholeAdapter -up-|> IAdapter
WormholeAdapter -up--> Gateway

MessageProcessor --up-> Root
MessageProcessor --up-> TokenRecoverer
MessageProcessor --up-> Hub
MessageProcessor --up-> Spoke
MessageProcessor --up-> BalanceSheet
MessageProcessor <--up-> Gateway

MessageDispatcher <---> Root
MessageDispatcher <---> TokenRecoverer
MessageDispatcher <---> Gateway
MessageDispatcher <-right-> Hub
MessageDispatcher <---> Spoke
MessageDispatcher <---> BalanceSheet

Guardian ---> Hub
Guardian -left---> Root
Guardian ---> MessageDispatcher
Guardian -> MultiAdapter

Gateway -up--> GasService
Gateway -up--|> Recoverable
Gateway -right-> Root
Gateway -down--> MultiAdapter
MultiAdapter -down->"n" IAdapter
Gateway -up->PoolEscrow

PoolEscrow -up-|> Escrow
Escrow -right-|> Recoverable

@enduml
